<?xml version="1.0" encoding="UTF-8" standalone="no"?>
<!-- Created with Inkscape (http://www.inkscape.org/) -->

<svg
   xmlns:dc="http://purl.org/dc/elements/1.1/"
   xmlns:cc="http://creativecommons.org/ns#"
   xmlns:rdf="http://www.w3.org/1999/02/22-rdf-syntax-ns#"
   xmlns:svg="http://www.w3.org/2000/svg"
   xmlns="http://www.w3.org/2000/svg"
   xmlns:xlink="http://www.w3.org/1999/xlink"
   xmlns:sodipodi="http://sodipodi.sourceforge.net/DTD/sodipodi-0.dtd"
   xmlns:inkscape="http://www.inkscape.org/namespaces/inkscape"
   version="1.2"
   width="160.52382"
   height="160.5238"
   id="svg7416"
   inkscape:version="0.48.3.1 r9886"
   sodipodi:docname="info-reconstruccion.svg">
  <sodipodi:namedview
     pagecolor="#ffffff"
     bordercolor="#666666"
     borderopacity="1"
     objecttolerance="10"
     gridtolerance="10"
     guidetolerance="10"
     inkscape:pageopacity="0"
     inkscape:pageshadow="2"
     inkscape:window-width="1024"
     inkscape:window-height="548"
     id="namedview16"
     showgrid="false"
     inkscape:zoom="2.0791583"
     inkscape:cx="56.702288"
     inkscape:cy="83.14491"
     inkscape:window-x="0"
     inkscape:window-y="0"
     inkscape:window-maximized="1"
     inkscape:current-layer="layer5" />
  <defs
     id="defs7418">
    <linearGradient
       id="linearGradient3778">
      <stop
         style="stop-color:#909090;stop-opacity:1"
         offset="0"
         id="stop3780" />
      <stop
         style="stop-color:#909090;stop-opacity:0;"
         offset="1"
         id="stop3782" />
    </linearGradient>
    <linearGradient
       inkscape:collect="always"
       xlink:href="#linearGradient3778"
       id="linearGradient3784"
       x1="161.12289"
       y1="159.62094"
       x2="25.853939"
       y2="31.684551"
       gradientUnits="userSpaceOnUse" />
  </defs>
  <metadata
     id="metadata7421">
    <rdf:RDF>
      <cc:Work
         rdf:about="">
        <dc:format>image/svg+xml</dc:format>
        <dc:type
           rdf:resource="http://purl.org/dc/dcmitype/StillImage" />
        <dc:title></dc:title>
      </cc:Work>
    </rdf:RDF>
  </metadata>
  <g
     inkscape:groupmode="layer"
     id="layer3"
     inkscape:label="texto"
     style="display:none">
    <g
       transform="translate(117.40477,-206.38599)"
       id="layer1">
      <g
         id="g7518">
        <rect
           width="160.52382"
           height="160.5238"
           x="-117.40477"
           y="206.38599"
           id="rect6361"
           style="fill:#ce4f50;fill-opacity:1;fill-rule:nonzero;stroke:none" />
        <flowRoot
           transform="translate(-190.24272,-227.27505)"
           id="flowRoot7320"
           xml:space="preserve"
           style="font-size:144px;font-style:normal;font-weight:normal;line-height:125%;letter-spacing:-0.13px;word-spacing:0px;fill:#ffffff;fill-opacity:1;stroke:none;font-family:Times New Roman;-inkscape-font-specification:Times New Roman"><flowRegion
             id="flowRegion7322"><rect
               width="246.37061"
               height="192.21667"
               x="108.30785"
               y="447.14743"
               id="rect7324"
               style="font-size:144px;letter-spacing:-0.13px;fill:#ffffff;font-family:Times New Roman;-inkscape-font-specification:Times New Roman" /></flowRegion><flowPara
             id="flowPara7326"
             style="font-size:102px;font-weight:normal;letter-spacing:-4.5px;fill:#ffffff;-inkscape-font-specification:'Times New Roman,'">FI</flowPara></flowRoot>        <text
           sodipodi:linespacing="125%"
           x="-161.29738"
           y="202.88336"
           transform="scale(0.66081891,1.5132739)"
           id="text7486"
           xml:space="preserve"
           style="font-size:42.78665924px;font-style:normal;font-weight:normal;line-height:125%;letter-spacing:0px;word-spacing:0px;fill:#ffffff;fill-opacity:1;stroke:none;font-family:Sans"><tspan
             x="-161.29738"
             y="202.88336"
             id="tspan7488">&lt;</tspan></text>
        <text
           sodipodi:linespacing="125%"
           x="-42.402699"
           y="202.88336"
           transform="scale(-0.66081891,1.5132739)"
           id="text7486-8"
           xml:space="preserve"
           style="font-size:42.78665924px;font-style:normal;font-weight:normal;line-height:125%;letter-spacing:0px;word-spacing:0px;fill:#ffffff;fill-opacity:1;stroke:none;font-family:Sans"><tspan
             x="-42.402699"
             y="202.88336"
             id="tspan7488-1">&lt;</tspan></text>
      </g>
    </g>
  </g>
  <g
     inkscape:groupmode="layer"
     id="layer5"
     inkscape:label="fondo"
     style="display:inline">
    <path
       style="fill:url(#linearGradient3784);fill-opacity:1;fill-rule:nonzero;stroke:none;display:inline"
       d="m 0,3.7109375e-6 160.52382,0 L 160.52382,160.5238 0,160.5238 z"
       id="rect6361-8"
       inkscape:connector-curvature="0" />
  </g>
  <g
     inkscape:groupmode="layer"
     id="layer2"
     inkscape:label="trayecto"
     style="display:inline">
    <g
       id="g3138"
       transform="translate(-4.3218077e-6,3.1835937e-6)">
      <g
         id="flowRoot7320-4"
         style="font-size:144px;font-style:normal;font-weight:normal;line-height:125%;letter-spacing:-0.13px;word-spacing:0px;fill:#ffffff;fill-opacity:1;stroke:none;font-family:Times New Roman;-inkscape-font-specification:Times New Roman"
         transform="translate(-70.749316,-431.93251)">
        <path
           inkscape:connector-curvature="0"
           id="path3171"
           style="font-size:102px;letter-spacing:-4.5px;fill:#ffffff;-inkscape-font-specification:'Times New Roman,'"
           d="m 129.18066,482.11237 0,26.5459 12.30176,0 c 2.82223,4e-5 4.88082,-0.61422 6.17578,-1.84277 1.32809,-1.26168 2.20797,-3.73531 2.63965,-7.4209 l 1.84277,0 0,22.86035 -1.84277,0 c -0.0332,-2.62302 -0.38188,-4.5488 -1.0459,-5.77734 -0.6309,-1.22849 -1.52738,-2.14157 -2.68945,-2.73926 -1.12894,-0.63083 -2.8223,-0.94626 -5.08008,-0.94629 l -12.30176,0 0,21.2168 c -2e-5,3.41993 0.2158,5.67774 0.64746,6.77343 0.33201,0.83009 1.02928,1.54395 2.0918,2.14161 1.46091,0.79687 2.98826,1.19531 4.58203,1.19531 l 2.44043,0 0,1.84277 -28.98633,0 0,-1.84277 2.39063,0 c 2.78906,0 4.81444,-0.81347 6.07617,-2.44043 0.79687,-1.0625 1.1953,-3.61913 1.19531,-7.66992 l 0,-43.62891 c -1e-5,-3.41986 -0.21583,-5.67767 -0.64746,-6.77344 -0.33204,-0.83001 -1.0127,-1.54388 -2.04199,-2.1416 -1.42774,-0.79681 -2.95508,-1.19524 -4.58203,-1.19531 l -2.39063,0 0,-1.84277 50.25293,0 0.64747,14.84179 -1.74317,0 c -0.86333,-3.15424 -1.87602,-5.46185 -3.03808,-6.92285 -1.12896,-1.49408 -2.54009,-2.57318 -4.2334,-3.2373 -1.6602,-0.664 -4.25004,-0.99603 -7.76953,-0.9961 l -14.89161,0" />
        <path
           inkscape:connector-curvature="0"
           id="path3173"
           style="font-size:102px;letter-spacing:-4.5px;fill:#ffffff;-inkscape-font-specification:'Times New Roman,'"
           d="m 192.06641,544.11921 0,1.84277 -28.93653,0 0,-1.84277 2.39063,0 c 2.78905,0 4.81444,-0.81347 6.07617,-2.44043 0.79686,-1.0625 1.1953,-3.61913 1.19531,-7.66992 l 0,-43.62891 c -1e-5,-3.41986 -0.21583,-5.67767 -0.64746,-6.77344 -0.33204,-0.83001 -1.0127,-1.54388 -2.04199,-2.1416 -1.46095,-0.79681 -2.98829,-1.19524 -4.58203,-1.19531 l -2.39063,0 0,-1.84277 28.93653,0 0,1.84277 -2.44043,0 c -2.75589,7e-5 -4.76468,0.81354 -6.02637,2.44043 -0.8301,1.06256 -1.24514,3.6192 -1.24512,7.66992 l 0,43.62891 c -2e-5,3.41993 0.2158,5.67774 0.64746,6.77343 0.33201,0.83009 1.02928,1.54395 2.0918,2.14161 1.42771,0.79687 2.93845,1.19531 4.53223,1.19531 l 2.44043,0" />
      </g>
      <g
         transform="translate(0,-1.8017782)"
         id="g3132">
        <g
           transform="matrix(0.66081891,0,0,1.5132739,119.54584,-204.65746)"
           style="font-size:42.78665924px;font-style:normal;font-weight:normal;line-height:125%;letter-spacing:0px;word-spacing:0px;fill:#ffffff;fill-opacity:1;stroke:none;font-family:Sans"
           id="text7486-3">
          <path
             d="m -129.98039,181.8243 -21.56046,7.66734 21.56046,7.62555 0,3.80233 -26.78344,-9.71474 0,-3.46806 26.78344,-9.71475 0,3.80233"
             id="path3176"
             inkscape:connector-curvature="0" />
        </g>
        <g
           transform="matrix(-0.66081891,0,0,1.5132739,119.54584,-204.65746)"
           style="font-size:42.78665924px;font-style:normal;font-weight:normal;line-height:125%;letter-spacing:0px;word-spacing:0px;fill:#ffffff;fill-opacity:1;stroke:none;font-family:Sans"
           id="text7486-8-4">
          <path
             d="m -11.085705,181.8243 -21.560465,7.66734 21.560465,7.62555 0,3.80233 -26.783446,-9.71474 0,-3.46806 26.783446,-9.71475 0,3.80233"
             id="path3179"
             inkscape:connector-curvature="0" />
        </g>
      </g>
    </g>
  </g>
  <g
     inkscape:groupmode="layer"
     id="layer6"
     inkscape:label="libertine"
     style="display:none">
    <text
       xml:space="preserve"
       style="font-size:40.79212952px;font-style:normal;font-weight:normal;line-height:125%;letter-spacing:0px;word-spacing:0px;fill:#ffffff;fill-opacity:1;stroke:none;display:inline;font-family:Sans"
       x="36.948368"
       y="116.37057"
       id="text3006"
       sodipodi:linespacing="125%"
       transform="scale(1.0198032,0.98058135)"><tspan
         sodipodi:role="line"
         id="tspan3008"
         x="36.948368"
         y="116.37057"
         style="font-size:107.07933807px;font-style:normal;font-variant:normal;font-weight:normal;font-stretch:normal;fill:#ffffff;font-family:Linux Libertine O;-inkscape-font-specification:Linux Libertine O">FI</tspan></text>
  </g>
</svg>
